<svg width="371" height="112" viewBox="0 0 371 112" fill="none" xmlns="http://www.w3.org/2000/svg">
<path d="M1.00002 1V62.8791C1.00004 68.1998 8.18582 69.0736 11.0096 65.1541C11.0096 54.2342 22.77 32.5004 24.6597 46.0444C27.3894 65.6091 17.3795 96.0936 24.6597 106.103C31.9398 116.113 43.3144 106.103 43.3144 106.103C43.3144 106.103 50.5945 79.7139 43.3144 62.8791C36.0343 46.0444 62.4245 41.9494 80.1689 46.0444C97.9134 50.1393 100.188 54.6892 118.843 62.8791C137.498 71.069 162.523 68.794 176.627 62.8791C190.732 56.9642 200.742 49.6843 204.382 46.0444C208.022 42.4044 210.297 39.2195 216.667 24.2047C223.037 9.18988 235.321 31.0296 245.332 29.6646C255.342 28.2996 262.167 18.7447 276.726 24.2047C291.286 29.6646 272.631 46.0444 276.726 62.8791C280.821 79.7139 297.201 84.2638 299.931 62.8791C302.66 41.4944 313.58 45.1344 313.58 45.1344L318.585 46.9543L322.68 50.5943C322.68 50.5943 323.135 54.6892 333.145 58.3292C343.155 61.9691 351.345 58.7842 360.445 41.4944C369.545 24.2047 369.545 1 369.545 1H1.00002Z" fill="#379683"/>
<path d="M1.00002 1C1.00002 1 0.999969 45.5894 1.00002 62.8791M1.00002 1H369.545C369.545 1 369.545 24.2047 360.445 41.4944C351.345 58.7842 343.155 61.9691 333.145 58.3292C323.135 54.6892 322.68 50.5943 322.68 50.5943L318.585 46.9543L313.58 45.1344C313.58 45.1344 302.66 41.4944 299.931 62.8791C297.201 84.2638 280.821 79.7139 276.726 62.8791C272.631 46.0444 291.286 29.6646 276.726 24.2047C262.167 18.7447 255.342 28.2996 245.332 29.6646C235.321 31.0296 223.037 9.18988 216.667 24.2047C210.297 39.2195 208.022 42.4044 204.382 46.0444C200.742 49.6843 190.732 56.9642 176.627 62.8791C162.523 68.794 137.498 71.069 118.843 62.8791C100.188 54.6892 97.9134 50.1393 80.1689 46.0444C62.4245 41.9494 36.0343 46.0444 43.3144 62.8791C50.5945 79.7139 43.3144 106.103 43.3144 106.103C43.3144 106.103 31.9398 116.113 24.6597 106.103C17.3795 96.0936 27.3894 65.6091 24.6597 46.0444C22.77 32.5004 11.0096 54.2342 11.0096 65.1541C8.18582 69.0736 1.00004 68.1998 1.00002 62.8791M1.00002 1V62.8791" stroke="#379683"/>
</svg>

